<?xml version="1.0" encoding="UTF-8"?>
<svg version="1.1" viewBox="0 0 1024 1024" width="1024" height="1024" xmlns="http://www.w3.org/2000/svg">
<path transform="translate(385,379)" d="m0 0h46l1 54 23 10 29 10 13 4 10-1 17-3h30l14 2 12 4 11 6 7 7h9l26-3 16-3h5v-79h44v62l11-7 14-11 11-11 10-14 8-16 4-11h1v50l-5 11-7 11-12 12-9 8-15 10-10 6v31l11-13 24-28 9-10 9-11 2-2h52l-2 4-15 16-9 10-22 24-12 13v3l20 26 14 18 12 16 11 14 10 13 2 4h-54l-10-12-14-19-13-17-12-16-13 13-1 51h-44l-1-110-21 5-15 2h-7v103h-43l-1-19-11 11-16 8-14 3h-17l-14-3-14-7-10-9-6-10-3-9-1-5v-16l4-13 7-10 9-8 12-6 13-4 16-2h42v-5h-16l-31-3-29-5-19-5-21-8-16-8 1 91 3 7 5 2 6 1-1 30-11 4h-20l-10-3-9-6-6-8-3-8-1-6-1-125-40-20-19-7-13-3-8-1h-22l-15 3-16 6-13 7-10 8h-3l11-12 10-9 13-9 15-8 18-6 16-3h30l21 3 20 5 6 2zm147 163-12 3-9 6-5 8-1 8 3 9 6 7 9 3h15l12-5 7-6 5-10 2-13v-8l-1-2z" fill="#007084"/>
<path transform="translate(385,379)" d="m0 0h46l1 54 23 10 29 10 15 5-4 1-5-2-1 4-16 8-5 3 1 5 7 10 3 5 1 1v5l6 2 10 2 5-6 11-5 14-3h11l13 3 2 1v2l5 2 4 6-2 2-6 2-1 2 11 1-4 2h-12l-31-3-29-5-19-5-21-8-16-8 1 91 3 7 5 2 6 1-1 30-11 4h-20l-10-3-9-6-6-8-3-8-1-6-1-125-40-20-19-7-13-3-8-1h-22l-15 3-16 6-13 7-10 8h-3l11-12 10-9 13-9 15-8 18-6 16-3h30l21 3 20 5 6 2z" fill="#007084"/>
<path transform="translate(524,453)" d="m0 0h30l14 2 12 4 6 3 11 11 3 1 6 13 2 6 2 19v103h-43l-1-19-11 11-16 8-14 3h-17l-14-3-14-7-10-9-6-10-3-9-1-5v-16l4-13 7-10 9-8 12-6 13-4 16-2h42v-5l-4-1-9-1 2-1 2-4 6-2-3-5-5-3v-2l-15-3h-11l-16 4-10 5-3 4-2 1-17-4 2-1-2-6-3-5-7-10-1-5 8-5 14-7 1-3 9 1 18-4zm8 89-12 3-9 6-5 8-1 8 3 9 6 7 9 3h15l12-5 7-6 5-10 2-13v-8l-1-2z" fill="#007085"/>
<path transform="translate(272,452)" d="m0 0h33l16 3 13 5 9 6 8 8 6 11 3 10 1 7v113h-43l-1-18-10 10-16 8-15 3h-14l-16-3-16-8-10-9-8-16-1-5v-17l4-13 6-9 5-5 9-7 11-5 15-4 7-1h48l-1-12-4-9-6-5-7-3-15-1-14 2-17 6-12 8-3 1-8-16-8-15 1-3 12-7 21-7zm10 90-9 2-10 5-6 9-1 3v9l4 8 7 6 7 2h14l10-3 9-6 6-9 2-5 1-6v-15z" fill="#006F84"/>
<path transform="translate(535,291)" d="m0 0 2 1 6 17 10 21 12 17 10 12 9 14 4 10 1 5v18l-4 13-7 11-7 7-11 7-16 5h-14l-14-4-10-5-11-10-7-11-4-14v-16l4-13 6-11 9-11 13-17 8-14 6-14z" fill="#FF4606"/>
<path transform="translate(756,379)" d="m0 0h1v50l-5 11-7 11-12 12-9 8-15 10-10 6-1 32h-1v-31l-21 9-18 6h-2v111h41v1h-43l-1-110-21 5-15 2h-8l-2-19-5-13-2-3v-3l-4-1-9-8-2-2 4 1 8 7 1 1h9l26-3 16-3h5v-79h44v62l11-7 14-11 11-11 10-14 8-16z" fill="#005A84"/>
<path transform="translate(625,237)" d="m0 0 6 4 9 9 9 14 3 9 1 6v14l-3 14-6 16-4 11-2 17 2 12 4 10 1 4-6 2h-16l-13-5-10-9-7-10-4-10-1-5v-13l3-11 5-10 11-14 10-14 7-14 2-9v-9z" fill="#FFC101"/>
<path transform="translate(430,382)" d="m0 0h1l1 51 23 10 29 10 15 5-4 1-5-2-1 4-16 8-5 3 1 5 7 10 3 5 1 1v5l6 2 10 2 5-6 11-5 14-3h11l13 3 2 1v2l5 2 4 6-2 2-6 2-1 2 11 1-4 2h-12l-31-3-29-5-19-5-21-8-16-8 1 91 3 7 5 2 6 1-1 30-11 4h-20l-10-3-9-6-6-8-2-5v-5l7 14 7 6 10 4 16 1 12-2 5-1v-28h-6l-5-3-3-6v-94l1-45-1-1z" fill="#005A84"/>
<path transform="translate(385,384)" d="m0 0h1v34l-1 40 1 3-6-2-36-18-19-7-13-3-8-1h-22l-15 3-16 6-13 7-10 8h-3l11-12 10-9 13-9 15-8 18-6 16-3h30l21 3 20 5 6 2z" fill="#005A84"/>
<path transform="translate(654,387)" d="m0 0h44v63l-11 7-27 9h-4v-2h-2z" fill="#006F84"/>
<path transform="translate(675,295)" d="m0 0h2l-1 14 3 14 7 12 7 10 4 10v8l-3 8-8 7-6 2h-12l-11-4-7-8-4-11v-16l4-13 7-13 11-14z" fill="#FFC101"/>
<path transform="translate(645,639)" d="m0 0h16l12 4 9 7-2 4-7 6-8-6-6-2h-14l-10 5-4 5-3 7v15l5 10 7 6 9 3 12-1 9-3 1-16-7 1h-10v-11h29l1 13v17l-7 6-8 4-8 2h-15l-10-3-10-6-7-8-4-9-1-5v-14l3-10 6-9 8-7 10-4z" fill="#006D85"/>
<path transform="translate(566,638)" d="m0 0h1v76h-11v-7l-8 6-6 2h-10l-10-4-7-7-4-10-1-10 3-12 7-9 10-5h14l8 4 3 3 1-26zm-30 30-7 3-5 6-2 7 1 9 4 7 7 4h10l8-5 3-5 1-4v-7l-3-8-7-6-3-1z" fill="#006D85"/>
<path transform="translate(394,658)" d="m0 0h17l9 4 4 5 3 9 1 38h-11l-2-5-8 5-4 1h-12l-8-4-5-6-1-3v-8l4-8 6-4 7-2h17l4 1-3-9-6-3h-9l-9 3-5 1-3-6 1-4 9-4zm2 31-6 3-1 2v6l4 4 3 1h8l8-4 3-4v-7l-1-1z" fill="#006D84"/>
<path transform="translate(715,658)" d="m0 0h18l9 4 4 5 2 6 1 41h-11l-1-6-6 5-6 2h-11l-8-3-5-5-2-3v-12l4-6 6-4 7-2h17l4 1-3-9-6-3h-9l-11 4h-3l-3-6 1-4 8-4zm3 31-6 3-1 1v7l4 4 3 1h8l8-4 3-5v-6l-1-1z" fill="#006D84"/>
<path transform="translate(241,657)" d="m0 0 11 2 8 4 7 9 3 10-1 13-5 10-7 6-11 4h-11l-9-3-9-8-4-8-1-4v-11l4-11 6-7 10-5zm-5 11-7 4-5 8v11l4 8 5 4 4 1h8l8-4 4-7 1-4v-7l-3-7-7-6-2-1z" fill="#006D85"/>
<path transform="translate(474,657)" d="m0 0 11 2 6 4 5 10 1 15v26h-12l-1-35-2-7-5-2-9-1-7 3-4 5-1 3-1 34h-11v-55h11l1 6 6-5 5-2z" fill="#006D85"/>
<path transform="translate(784,657)" d="m0 0 12 2 8 4-2 6-2 3-10-3h-11l-3 1-1 5 4 3 16 4 8 5 3 5v11l-4 6-8 5-4 1h-13l-11-4-5-3 1-5 3-5 5 2 7 3h13l3-2v-6l-7-3-12-3-8-5-3-5v-10l4-6 6-4z" fill="#006D85"/>
<path transform="translate(312,639)" d="m0 0h11l1 60 1 3 7 1v10l-4 2h-7l-6-3-3-5z" fill="#006C84"/>
<path transform="translate(283,659)" d="m0 0h12v55h-12z" fill="#006C84"/>
<path transform="translate(286,638)" d="m0 0 7 1 3 4-1 7-3 2h-7l-3-3v-7z" fill="#006B84"/>
<path transform="translate(754,454)" d="m0 0h52l-2 4-7 6 2-4 3-3h-49l-2 4-7 6 2-4z" fill="#006384"/>
<path transform="translate(710,549)" d="m0 0 4 1 12 16 7 9-1 2-12-15-8-11-4 2z" fill="#005F84"/>
<path transform="translate(654,673)" d="m0 0h2v9h16l-4 2h-14z" fill="#006084"/>
<path transform="translate(756,379)" d="m0 0h1v21h-1l-1-8-4 2 3-9z" fill="#006884"/>
<path transform="translate(778,667)" d="m0 0 3 1-5 2-1 5 4 3 7 2v1l-8-1-4-2-1-7 2-3z" fill="#005F84"/>
<path transform="translate(242,437)" d="m0 0m-1 1m-1 1m-1 1m-2 1 2 1-6 7-5 5h-3l11-12z" fill="#006384"/>
</svg>
